<?xml version="1.0" encoding="utf-8" ?>
<svg baseProfile="full" height="134" version="1.1" width="666" xmlns="http://www.w3.org/2000/svg" xmlns:ev="http://www.w3.org/2001/xml-events" xmlns:xlink="http://www.w3.org/1999/xlink"><defs /><text fill="#2D3436" style="font-size:20px; font-family:Arial;" x="0" y="20">ZiGma's Read Time Heatmap</text><text fill="#2D3436" style="font-size:14px; font-family:Arial;" x="0" y="36">2025: 21 hours</text><text fill="#2D3436" style="font-size:10px; font-family:Arial" x="0" y="48">Jan</text><rect fill="#9ae8a7" height="10" rx="2" ry="2" width="10" x="0" y="50"><title>2024-12-30 4 secs</title></rect><rect fill="#95e5a3" height="10" rx="2" ry="2" width="10" x="0" y="62"><title>2024-12-31 1911 secs</title></rect><rect fill="#8de09d" height="10" rx="2" ry="2" width="10" x="0" y="74"><title>2025-01-01 4560 secs</title></rect><rect fill="#98e7a5" height="10" rx="2" ry="2" width="10" x="0" y="86"><title>2025-01-02 973 secs</title></rect><rect fill="#99e7a6" height="10" rx="2" ry="2" width="10" x="0" y="98"><title>2025-01-03 602 secs</title></rect><rect fill="#97e6a4" height="10" rx="2" ry="2" width="10" x="0" y="110"><title>2025-01-04 1314 secs</title></rect><rect fill="#98e7a5" height="10" rx="2" ry="2" width="10" x="0" y="122"><title>2025-01-05 1022 secs</title></rect><rect fill="#8ddf9c" height="10" rx="2" ry="2" width="10" x="12" y="50"><title>2025-01-06 4710 secs</title></rect><rect fill="#93e3a1" height="10" rx="2" ry="2" width="10" x="12" y="62"><title>2025-01-07 2786 secs</title></rect><rect fill="#6fcb83" height="10" rx="2" ry="2" width="10" x="12" y="74"><title>2025-01-08 15086 secs</title></rect><rect fill="#96e6a4" height="10" rx="2" ry="2" width="10" x="12" y="86"><title>2025-01-09 1425 secs</title></rect><rect fill="#96e5a3" height="10" rx="2" ry="2" width="10" x="12" y="98"><title>2025-01-10 1693 secs</title></rect><rect fill="#99e7a6" height="10" rx="2" ry="2" width="10" x="12" y="110"><title>2025-01-11 595 secs</title></rect><rect fill="#99e8a6" height="10" rx="2" ry="2" width="10" x="12" y="122"><title>2025-01-12 437 secs</title></rect><rect fill="#9be9a8" height="10" rx="2" ry="2" width="10" x="24" y="50"><title>2025-01-13 1 secs</title></rect><rect fill="#9ae8a7" height="10" rx="2" ry="2" width="10" x="24" y="62"><title>2025-01-14 19 secs</title></rect><rect fill="#99e8a7" height="10" rx="2" ry="2" width="10" x="24" y="74"><title>2025-01-15 354 secs</title></rect><rect fill="#95e5a3" height="10" rx="2" ry="2" width="10" x="24" y="86"><title>2025-01-16 1875 secs</title></rect><rect fill="#97e6a4" height="10" rx="2" ry="2" width="10" x="24" y="98"><title>2025-01-17 1341 secs</title></rect><rect fill="#99e8a6" height="10" rx="2" ry="2" width="10" x="24" y="110"><title>2025-01-18 492 secs</title></rect><rect fill="#96e5a3" height="10" rx="2" ry="2" width="10" x="24" y="122"><title>2025-01-19 1675 secs</title></rect><rect fill="#9ae8a7" height="10" rx="2" ry="2" width="10" x="36" y="50"><title>2025-01-20 328 secs</title></rect><rect fill="#99e7a6" height="10" rx="2" ry="2" width="10" x="36" y="62"><title>2025-01-21 658 secs</title></rect><rect fill="#9ae8a7" height="10" rx="2" ry="2" width="10" x="36" y="74"><title>2025-01-22 46 secs</title></rect><rect fill="#EBEDF0" height="10" rx="2" ry="2" width="10" x="36" y="86"><title>2025-01-23</title></rect><rect fill="#9ae8a7" height="10" rx="2" ry="2" width="10" x="36" y="98"><title>2025-01-24 30 secs</title></rect><rect fill="#9ae8a7" height="10" rx="2" ry="2" width="10" x="36" y="110"><title>2025-01-25 4 secs</title></rect><rect fill="#7ed58f" height="10" rx="2" ry="2" width="10" x="36" y="122"><title>2025-01-26 10057 secs</title></rect><rect fill="#EBEDF0" height="10" rx="2" ry="2" width="10" x="48" y="50"><title>2025-01-27</title></rect><rect fill="#EBEDF0" height="10" rx="2" ry="2" width="10" x="48" y="62"><title>2025-01-28</title></rect><rect fill="#98e7a5" height="10" rx="2" ry="2" width="10" x="48" y="74"><title>2025-01-29 909 secs</title></rect><rect fill="#EBEDF0" height="10" rx="2" ry="2" width="10" x="48" y="86"><title>2025-01-30</title></rect><rect fill="#9ae8a7" height="10" rx="2" ry="2" width="10" x="48" y="98"><title>2025-01-31 3 secs</title></rect><rect fill="#98e7a5" height="10" rx="2" ry="2" width="10" x="48" y="110"><title>2025-02-01 1000 secs</title></rect><rect fill="#EBEDF0" height="10" rx="2" ry="2" width="10" x="48" y="122"><title>2025-02-02</title></rect><text fill="#2D3436" style="font-size:10px; font-family:Arial" x="60" y="48">Feb</text><rect fill="#97e6a5" height="10" rx="2" ry="2" width="10" x="60" y="50"><title>2025-02-03 1103 secs</title></rect><rect fill="#86da96" height="10" rx="2" ry="2" width="10" x="60" y="62"><title>2025-02-04 7280 secs</title></rect><rect fill="#9ae8a7" height="10" rx="2" ry="2" width="10" x="60" y="74"><title>2025-02-05 185 secs</title></rect><rect fill="#EBEDF0" height="10" rx="2" ry="2" width="10" x="60" y="86"><title>2025-02-06</title></rect><rect fill="#9ae8a7" height="10" rx="2" ry="2" width="10" x="60" y="98"><title>2025-02-07 6 secs</title></rect><rect fill="#EBEDF0" height="10" rx="2" ry="2" width="10" x="60" y="110"><title>2025-02-08</title></rect><rect fill="#EBEDF0" height="10" rx="2" ry="2" width="10" x="60" y="122"><title>2025-02-09</title></rect><rect fill="#EBEDF0" height="10" rx="2" ry="2" width="10" x="72" y="50"><title>2025-02-10</title></rect><rect fill="#EBEDF0" height="10" rx="2" ry="2" width="10" x="72" y="62"><title>2025-02-11</title></rect><rect fill="#EBEDF0" height="10" rx="2" ry="2" width="10" x="72" y="74"><title>2025-02-12</title></rect><rect fill="#EBEDF0" height="10" rx="2" ry="2" width="10" x="72" y="86"><title>2025-02-13</title></rect><rect fill="#EBEDF0" height="10" rx="2" ry="2" width="10" x="72" y="98"><title>2025-02-14</title></rect><rect fill="#9ae8a7" height="10" rx="2" ry="2" width="10" x="72" y="110"><title>2025-02-15 29 secs</title></rect><rect fill="#99e8a6" height="10" rx="2" ry="2" width="10" x="72" y="122"><title>2025-02-16 493 secs</title></rect><rect fill="#EBEDF0" height="10" rx="2" ry="2" width="10" x="84" y="50"><title>2025-02-17</title></rect><rect fill="#9ae8a7" height="10" rx="2" ry="2" width="10" x="84" y="62"><title>2025-02-18 3 secs</title></rect><rect fill="#EBEDF0" height="10" rx="2" ry="2" width="10" x="84" y="74"><title>2025-02-19</title></rect><rect fill="#9ae8a7" height="10" rx="2" ry="2" width="10" x="84" y="86"><title>2025-02-20 70 secs</title></rect><rect fill="#97e6a4" height="10" rx="2" ry="2" width="10" x="84" y="98"><title>2025-02-21 1381 secs</title></rect><rect fill="#8fe19e" height="10" rx="2" ry="2" width="10" x="84" y="110"><title>2025-02-22 4069 secs</title></rect><rect fill="#9ae8a7" height="10" rx="2" ry="2" width="10" x="84" y="122"><title>2025-02-23 72 secs</title></rect><rect fill="#95e5a3" height="10" rx="2" ry="2" width="10" x="96" y="50"><title>2025-02-24 1800 secs</title></rect><rect fill="#99e8a6" height="10" rx="2" ry="2" width="10" x="96" y="62"><title>2025-02-25 499 secs</title></rect><rect fill="#EBEDF0" height="10" rx="2" ry="2" width="10" x="96" y="74"><title>2025-02-26</title></rect><rect fill="#98e7a6" height="10" rx="2" ry="2" width="10" x="96" y="86"><title>2025-02-27 809 secs</title></rect><rect fill="#EBEDF0" height="10" rx="2" ry="2" width="10" x="96" y="98"><title>2025-02-28</title></rect><rect fill="#9be9a8" height="10" rx="2" ry="2" width="10" x="96" y="110"><title>2025-03-01 1 secs</title></rect><rect fill="#9ae8a7" height="10" rx="2" ry="2" width="10" x="96" y="122"><title>2025-03-02 184 secs</title></rect><text fill="#2D3436" style="font-size:10px; font-family:Arial" x="108" y="48">Mar</text><rect fill="#8fe19e" height="10" rx="2" ry="2" width="10" x="108" y="50"><title>2025-03-03 3964 secs</title></rect><rect fill="#9ae8a7" height="10" rx="2" ry="2" width="10" x="108" y="62"><title>2025-03-04 7 secs</title></rect><rect fill="#97e6a5" height="10" rx="2" ry="2" width="10" x="108" y="74"><title>2025-03-05 1092 secs</title></rect><rect fill="#EBEDF0" height="10" rx="2" ry="2" width="10" x="108" y="86"><title>2025-03-06</title></rect><rect fill="#EBEDF0" height="10" rx="2" ry="2" width="10" x="108" y="98"><title>2025-03-07</title></rect><rect fill="#EBEDF0" height="10" rx="2" ry="2" width="10" x="108" y="110"><title>2025-03-08</title></rect><rect fill="#EBEDF0" height="10" rx="2" ry="2" width="10" x="108" y="122"><title>2025-03-09</title></rect><rect fill="#EBEDF0" height="10" rx="2" ry="2" width="10" x="120" y="50"><title>2025-03-10</title></rect><rect fill="#EBEDF0" height="10" rx="2" ry="2" width="10" x="120" y="62"><title>2025-03-11</title></rect><rect fill="#EBEDF0" height="10" rx="2" ry="2" width="10" x="120" y="74"><title>2025-03-12</title></rect><rect fill="#EBEDF0" height="10" rx="2" ry="2" width="10" x="120" y="86"><title>2025-03-13</title></rect><rect fill="#EBEDF0" height="10" rx="2" ry="2" width="10" x="120" y="98"><title>2025-03-14</title></rect><rect fill="#EBEDF0" height="10" rx="2" ry="2" width="10" x="120" y="110"><title>2025-03-15</title></rect><rect fill="#EBEDF0" height="10" rx="2" ry="2" width="10" x="120" y="122"><title>2025-03-16</title></rect><rect fill="#EBEDF0" height="10" rx="2" ry="2" width="10" x="132" y="50"><title>2025-03-17</title></rect><rect fill="#EBEDF0" height="10" rx="2" ry="2" width="10" x="132" y="62"><title>2025-03-18</title></rect><rect fill="#EBEDF0" height="10" rx="2" ry="2" width="10" x="132" y="74"><title>2025-03-19</title></rect><rect fill="#EBEDF0" height="10" rx="2" ry="2" width="10" x="132" y="86"><title>2025-03-20</title></rect><rect fill="#EBEDF0" height="10" rx="2" ry="2" width="10" x="132" y="98"><title>2025-03-21</title></rect><rect fill="#EBEDF0" height="10" rx="2" ry="2" width="10" x="132" y="110"><title>2025-03-22</title></rect><rect fill="#EBEDF0" height="10" rx="2" ry="2" width="10" x="132" y="122"><title>2025-03-23</title></rect><rect fill="#EBEDF0" height="10" rx="2" ry="2" width="10" x="144" y="50"><title>2025-03-24</title></rect><rect fill="#EBEDF0" height="10" rx="2" ry="2" width="10" x="144" y="62"><title>2025-03-25</title></rect><rect fill="#EBEDF0" height="10" rx="2" ry="2" width="10" x="144" y="74"><title>2025-03-26</title></rect><rect fill="#EBEDF0" height="10" rx="2" ry="2" width="10" x="144" y="86"><title>2025-03-27</title></rect><rect fill="#EBEDF0" height="10" rx="2" ry="2" width="10" x="144" y="98"><title>2025-03-28</title></rect><rect fill="#EBEDF0" height="10" rx="2" ry="2" width="10" x="144" y="110"><title>2025-03-29</title></rect><rect fill="#EBEDF0" height="10" rx="2" ry="2" width="10" x="144" y="122"><title>2025-03-30</title></rect><rect fill="#EBEDF0" height="10" rx="2" ry="2" width="10" x="156" y="50"><title>2025-03-31</title></rect><rect fill="#EBEDF0" height="10" rx="2" ry="2" width="10" x="156" y="62"><title>2025-04-01</title></rect><rect fill="#EBEDF0" height="10" rx="2" ry="2" width="10" x="156" y="74"><title>2025-04-02</title></rect><rect fill="#EBEDF0" height="10" rx="2" ry="2" width="10" x="156" y="86"><title>2025-04-03</title></rect><rect fill="#EBEDF0" height="10" rx="2" ry="2" width="10" x="156" y="98"><title>2025-04-04</title></rect><rect fill="#EBEDF0" height="10" rx="2" ry="2" width="10" x="156" y="110"><title>2025-04-05</title></rect><rect fill="#EBEDF0" height="10" rx="2" ry="2" width="10" x="156" y="122"><title>2025-04-06</title></rect><text fill="#2D3436" style="font-size:10px; font-family:Arial" x="168" y="48">Apr</text><rect fill="#EBEDF0" height="10" rx="2" ry="2" width="10" x="168" y="50"><title>2025-04-07</title></rect><rect fill="#EBEDF0" height="10" rx="2" ry="2" width="10" x="168" y="62"><title>2025-04-08</title></rect><rect fill="#EBEDF0" height="10" rx="2" ry="2" width="10" x="168" y="74"><title>2025-04-09</title></rect><rect fill="#EBEDF0" height="10" rx="2" ry="2" width="10" x="168" y="86"><title>2025-04-10</title></rect><rect fill="#EBEDF0" height="10" rx="2" ry="2" width="10" x="168" y="98"><title>2025-04-11</title></rect><rect fill="#EBEDF0" height="10" rx="2" ry="2" width="10" x="168" y="110"><title>2025-04-12</title></rect><rect fill="#EBEDF0" height="10" rx="2" ry="2" width="10" x="168" y="122"><title>2025-04-13</title></rect><rect fill="#EBEDF0" height="10" rx="2" ry="2" width="10" x="180" y="50"><title>2025-04-14</title></rect><rect fill="#EBEDF0" height="10" rx="2" ry="2" width="10" x="180" y="62"><title>2025-04-15</title></rect><rect fill="#EBEDF0" height="10" rx="2" ry="2" width="10" x="180" y="74"><title>2025-04-16</title></rect><rect fill="#EBEDF0" height="10" rx="2" ry="2" width="10" x="180" y="86"><title>2025-04-17</title></rect><rect fill="#EBEDF0" height="10" rx="2" ry="2" width="10" x="180" y="98"><title>2025-04-18</title></rect><rect fill="#EBEDF0" height="10" rx="2" ry="2" width="10" x="180" y="110"><title>2025-04-19</title></rect><rect fill="#EBEDF0" height="10" rx="2" ry="2" width="10" x="180" y="122"><title>2025-04-20</title></rect><rect fill="#EBEDF0" height="10" rx="2" ry="2" width="10" x="192" y="50"><title>2025-04-21</title></rect><rect fill="#EBEDF0" height="10" rx="2" ry="2" width="10" x="192" y="62"><title>2025-04-22</title></rect><rect fill="#EBEDF0" height="10" rx="2" ry="2" width="10" x="192" y="74"><title>2025-04-23</title></rect><rect fill="#EBEDF0" height="10" rx="2" ry="2" width="10" x="192" y="86"><title>2025-04-24</title></rect><rect fill="#EBEDF0" height="10" rx="2" ry="2" width="10" x="192" y="98"><title>2025-04-25</title></rect><rect fill="#EBEDF0" height="10" rx="2" ry="2" width="10" x="192" y="110"><title>2025-04-26</title></rect><rect fill="#EBEDF0" height="10" rx="2" ry="2" width="10" x="192" y="122"><title>2025-04-27</title></rect><rect fill="#EBEDF0" height="10" rx="2" ry="2" width="10" x="204" y="50"><title>2025-04-28</title></rect><rect fill="#EBEDF0" height="10" rx="2" ry="2" width="10" x="204" y="62"><title>2025-04-29</title></rect><rect fill="#EBEDF0" height="10" rx="2" ry="2" width="10" x="204" y="74"><title>2025-04-30</title></rect><rect fill="#EBEDF0" height="10" rx="2" ry="2" width="10" x="204" y="86"><title>2025-05-01</title></rect><rect fill="#EBEDF0" height="10" rx="2" ry="2" width="10" x="204" y="98"><title>2025-05-02</title></rect><rect fill="#EBEDF0" height="10" rx="2" ry="2" width="10" x="204" y="110"><title>2025-05-03</title></rect><rect fill="#EBEDF0" height="10" rx="2" ry="2" width="10" x="204" y="122"><title>2025-05-04</title></rect><text fill="#2D3436" style="font-size:10px; font-family:Arial" x="216" y="48">May</text><rect fill="#EBEDF0" height="10" rx="2" ry="2" width="10" x="216" y="50"><title>2025-05-05</title></rect><rect fill="#EBEDF0" height="10" rx="2" ry="2" width="10" x="216" y="62"><title>2025-05-06</title></rect><rect fill="#EBEDF0" height="10" rx="2" ry="2" width="10" x="216" y="74"><title>2025-05-07</title></rect><rect fill="#EBEDF0" height="10" rx="2" ry="2" width="10" x="216" y="86"><title>2025-05-08</title></rect><rect fill="#EBEDF0" height="10" rx="2" ry="2" width="10" x="216" y="98"><title>2025-05-09</title></rect><rect fill="#EBEDF0" height="10" rx="2" ry="2" width="10" x="216" y="110"><title>2025-05-10</title></rect><rect fill="#EBEDF0" height="10" rx="2" ry="2" width="10" x="216" y="122"><title>2025-05-11</title></rect><rect fill="#EBEDF0" height="10" rx="2" ry="2" width="10" x="228" y="50"><title>2025-05-12</title></rect><rect fill="#EBEDF0" height="10" rx="2" ry="2" width="10" x="228" y="62"><title>2025-05-13</title></rect><rect fill="#EBEDF0" height="10" rx="2" ry="2" width="10" x="228" y="74"><title>2025-05-14</title></rect><rect fill="#EBEDF0" height="10" rx="2" ry="2" width="10" x="228" y="86"><title>2025-05-15</title></rect><rect fill="#EBEDF0" height="10" rx="2" ry="2" width="10" x="228" y="98"><title>2025-05-16</title></rect><rect fill="#EBEDF0" height="10" rx="2" ry="2" width="10" x="228" y="110"><title>2025-05-17</title></rect><rect fill="#EBEDF0" height="10" rx="2" ry="2" width="10" x="228" y="122"><title>2025-05-18</title></rect><rect fill="#EBEDF0" height="10" rx="2" ry="2" width="10" x="240" y="50"><title>2025-05-19</title></rect><rect fill="#EBEDF0" height="10" rx="2" ry="2" width="10" x="240" y="62"><title>2025-05-20</title></rect><rect fill="#EBEDF0" height="10" rx="2" ry="2" width="10" x="240" y="74"><title>2025-05-21</title></rect><rect fill="#EBEDF0" height="10" rx="2" ry="2" width="10" x="240" y="86"><title>2025-05-22</title></rect><rect fill="#EBEDF0" height="10" rx="2" ry="2" width="10" x="240" y="98"><title>2025-05-23</title></rect><rect fill="#EBEDF0" height="10" rx="2" ry="2" width="10" x="240" y="110"><title>2025-05-24</title></rect><rect fill="#EBEDF0" height="10" rx="2" ry="2" width="10" x="240" y="122"><title>2025-05-25</title></rect><rect fill="#EBEDF0" height="10" rx="2" ry="2" width="10" x="252" y="50"><title>2025-05-26</title></rect><rect fill="#EBEDF0" height="10" rx="2" ry="2" width="10" x="252" y="62"><title>2025-05-27</title></rect><rect fill="#EBEDF0" height="10" rx="2" ry="2" width="10" x="252" y="74"><title>2025-05-28</title></rect><rect fill="#EBEDF0" height="10" rx="2" ry="2" width="10" x="252" y="86"><title>2025-05-29</title></rect><rect fill="#EBEDF0" height="10" rx="2" ry="2" width="10" x="252" y="98"><title>2025-05-30</title></rect><rect fill="#EBEDF0" height="10" rx="2" ry="2" width="10" x="252" y="110"><title>2025-05-31</title></rect><rect fill="#EBEDF0" height="10" rx="2" ry="2" width="10" x="252" y="122"><title>2025-06-01</title></rect><text fill="#2D3436" style="font-size:10px; font-family:Arial" x="264" y="48">Jun</text><rect fill="#EBEDF0" height="10" rx="2" ry="2" width="10" x="264" y="50"><title>2025-06-02</title></rect><rect fill="#EBEDF0" height="10" rx="2" ry="2" width="10" x="264" y="62"><title>2025-06-03</title></rect><rect fill="#EBEDF0" height="10" rx="2" ry="2" width="10" x="264" y="74"><title>2025-06-04</title></rect><rect fill="#EBEDF0" height="10" rx="2" ry="2" width="10" x="264" y="86"><title>2025-06-05</title></rect><rect fill="#EBEDF0" height="10" rx="2" ry="2" width="10" x="264" y="98"><title>2025-06-06</title></rect><rect fill="#EBEDF0" height="10" rx="2" ry="2" width="10" x="264" y="110"><title>2025-06-07</title></rect><rect fill="#EBEDF0" height="10" rx="2" ry="2" width="10" x="264" y="122"><title>2025-06-08</title></rect><rect fill="#EBEDF0" height="10" rx="2" ry="2" width="10" x="276" y="50"><title>2025-06-09</title></rect><rect fill="#EBEDF0" height="10" rx="2" ry="2" width="10" x="276" y="62"><title>2025-06-10</title></rect><rect fill="#EBEDF0" height="10" rx="2" ry="2" width="10" x="276" y="74"><title>2025-06-11</title></rect><rect fill="#EBEDF0" height="10" rx="2" ry="2" width="10" x="276" y="86"><title>2025-06-12</title></rect><rect fill="#EBEDF0" height="10" rx="2" ry="2" width="10" x="276" y="98"><title>2025-06-13</title></rect><rect fill="#EBEDF0" height="10" rx="2" ry="2" width="10" x="276" y="110"><title>2025-06-14</title></rect><rect fill="#EBEDF0" height="10" rx="2" ry="2" width="10" x="276" y="122"><title>2025-06-15</title></rect><rect fill="#EBEDF0" height="10" rx="2" ry="2" width="10" x="288" y="50"><title>2025-06-16</title></rect><rect fill="#EBEDF0" height="10" rx="2" ry="2" width="10" x="288" y="62"><title>2025-06-17</title></rect><rect fill="#EBEDF0" height="10" rx="2" ry="2" width="10" x="288" y="74"><title>2025-06-18</title></rect><rect fill="#EBEDF0" height="10" rx="2" ry="2" width="10" x="288" y="86"><title>2025-06-19</title></rect><rect fill="#EBEDF0" height="10" rx="2" ry="2" width="10" x="288" y="98"><title>2025-06-20</title></rect><rect fill="#EBEDF0" height="10" rx="2" ry="2" width="10" x="288" y="110"><title>2025-06-21</title></rect><rect fill="#EBEDF0" height="10" rx="2" ry="2" width="10" x="288" y="122"><title>2025-06-22</title></rect><rect fill="#EBEDF0" height="10" rx="2" ry="2" width="10" x="300" y="50"><title>2025-06-23</title></rect><rect fill="#EBEDF0" height="10" rx="2" ry="2" width="10" x="300" y="62"><title>2025-06-24</title></rect><rect fill="#EBEDF0" height="10" rx="2" ry="2" width="10" x="300" y="74"><title>2025-06-25</title></rect><rect fill="#EBEDF0" height="10" rx="2" ry="2" width="10" x="300" y="86"><title>2025-06-26</title></rect><rect fill="#EBEDF0" height="10" rx="2" ry="2" width="10" x="300" y="98"><title>2025-06-27</title></rect><rect fill="#EBEDF0" height="10" rx="2" ry="2" width="10" x="300" y="110"><title>2025-06-28</title></rect><rect fill="#EBEDF0" height="10" rx="2" ry="2" width="10" x="300" y="122"><title>2025-06-29</title></rect><rect fill="#EBEDF0" height="10" rx="2" ry="2" width="10" x="312" y="50"><title>2025-06-30</title></rect><rect fill="#EBEDF0" height="10" rx="2" ry="2" width="10" x="312" y="62"><title>2025-07-01</title></rect><rect fill="#EBEDF0" height="10" rx="2" ry="2" width="10" x="312" y="74"><title>2025-07-02</title></rect><rect fill="#EBEDF0" height="10" rx="2" ry="2" width="10" x="312" y="86"><title>2025-07-03</title></rect><rect fill="#EBEDF0" height="10" rx="2" ry="2" width="10" x="312" y="98"><title>2025-07-04</title></rect><rect fill="#EBEDF0" height="10" rx="2" ry="2" width="10" x="312" y="110"><title>2025-07-05</title></rect><rect fill="#EBEDF0" height="10" rx="2" ry="2" width="10" x="312" y="122"><title>2025-07-06</title></rect><text fill="#2D3436" style="font-size:10px; font-family:Arial" x="324" y="48">Jul</text><rect fill="#EBEDF0" height="10" rx="2" ry="2" width="10" x="324" y="50"><title>2025-07-07</title></rect><rect fill="#EBEDF0" height="10" rx="2" ry="2" width="10" x="324" y="62"><title>2025-07-08</title></rect><rect fill="#EBEDF0" height="10" rx="2" ry="2" width="10" x="324" y="74"><title>2025-07-09</title></rect><rect fill="#EBEDF0" height="10" rx="2" ry="2" width="10" x="324" y="86"><title>2025-07-10</title></rect><rect fill="#EBEDF0" height="10" rx="2" ry="2" width="10" x="324" y="98"><title>2025-07-11</title></rect><rect fill="#EBEDF0" height="10" rx="2" ry="2" width="10" x="324" y="110"><title>2025-07-12</title></rect><rect fill="#EBEDF0" height="10" rx="2" ry="2" width="10" x="324" y="122"><title>2025-07-13</title></rect><rect fill="#EBEDF0" height="10" rx="2" ry="2" width="10" x="336" y="50"><title>2025-07-14</title></rect><rect fill="#EBEDF0" height="10" rx="2" ry="2" width="10" x="336" y="62"><title>2025-07-15</title></rect><rect fill="#EBEDF0" height="10" rx="2" ry="2" width="10" x="336" y="74"><title>2025-07-16</title></rect><rect fill="#EBEDF0" height="10" rx="2" ry="2" width="10" x="336" y="86"><title>2025-07-17</title></rect><rect fill="#EBEDF0" height="10" rx="2" ry="2" width="10" x="336" y="98"><title>2025-07-18</title></rect><rect fill="#EBEDF0" height="10" rx="2" ry="2" width="10" x="336" y="110"><title>2025-07-19</title></rect><rect fill="#EBEDF0" height="10" rx="2" ry="2" width="10" x="336" y="122"><title>2025-07-20</title></rect><rect fill="#EBEDF0" height="10" rx="2" ry="2" width="10" x="348" y="50"><title>2025-07-21</title></rect><rect fill="#EBEDF0" height="10" rx="2" ry="2" width="10" x="348" y="62"><title>2025-07-22</title></rect><rect fill="#EBEDF0" height="10" rx="2" ry="2" width="10" x="348" y="74"><title>2025-07-23</title></rect><rect fill="#EBEDF0" height="10" rx="2" ry="2" width="10" x="348" y="86"><title>2025-07-24</title></rect><rect fill="#EBEDF0" height="10" rx="2" ry="2" width="10" x="348" y="98"><title>2025-07-25</title></rect><rect fill="#EBEDF0" height="10" rx="2" ry="2" width="10" x="348" y="110"><title>2025-07-26</title></rect><rect fill="#EBEDF0" height="10" rx="2" ry="2" width="10" x="348" y="122"><title>2025-07-27</title></rect><rect fill="#EBEDF0" height="10" rx="2" ry="2" width="10" x="360" y="50"><title>2025-07-28</title></rect><rect fill="#EBEDF0" height="10" rx="2" ry="2" width="10" x="360" y="62"><title>2025-07-29</title></rect><rect fill="#EBEDF0" height="10" rx="2" ry="2" width="10" x="360" y="74"><title>2025-07-30</title></rect><rect fill="#EBEDF0" height="10" rx="2" ry="2" width="10" x="360" y="86"><title>2025-07-31</title></rect><rect fill="#EBEDF0" height="10" rx="2" ry="2" width="10" x="360" y="98"><title>2025-08-01</title></rect><rect fill="#EBEDF0" height="10" rx="2" ry="2" width="10" x="360" y="110"><title>2025-08-02</title></rect><rect fill="#EBEDF0" height="10" rx="2" ry="2" width="10" x="360" y="122"><title>2025-08-03</title></rect><text fill="#2D3436" style="font-size:10px; font-family:Arial" x="372" y="48">Aug</text><rect fill="#EBEDF0" height="10" rx="2" ry="2" width="10" x="372" y="50"><title>2025-08-04</title></rect><rect fill="#EBEDF0" height="10" rx="2" ry="2" width="10" x="372" y="62"><title>2025-08-05</title></rect><rect fill="#EBEDF0" height="10" rx="2" ry="2" width="10" x="372" y="74"><title>2025-08-06</title></rect><rect fill="#EBEDF0" height="10" rx="2" ry="2" width="10" x="372" y="86"><title>2025-08-07</title></rect><rect fill="#EBEDF0" height="10" rx="2" ry="2" width="10" x="372" y="98"><title>2025-08-08</title></rect><rect fill="#EBEDF0" height="10" rx="2" ry="2" width="10" x="372" y="110"><title>2025-08-09</title></rect><rect fill="#EBEDF0" height="10" rx="2" ry="2" width="10" x="372" y="122"><title>2025-08-10</title></rect><rect fill="#EBEDF0" height="10" rx="2" ry="2" width="10" x="384" y="50"><title>2025-08-11</title></rect><rect fill="#EBEDF0" height="10" rx="2" ry="2" width="10" x="384" y="62"><title>2025-08-12</title></rect><rect fill="#EBEDF0" height="10" rx="2" ry="2" width="10" x="384" y="74"><title>2025-08-13</title></rect><rect fill="#EBEDF0" height="10" rx="2" ry="2" width="10" x="384" y="86"><title>2025-08-14</title></rect><rect fill="#EBEDF0" height="10" rx="2" ry="2" width="10" x="384" y="98"><title>2025-08-15</title></rect><rect fill="#EBEDF0" height="10" rx="2" ry="2" width="10" x="384" y="110"><title>2025-08-16</title></rect><rect fill="#EBEDF0" height="10" rx="2" ry="2" width="10" x="384" y="122"><title>2025-08-17</title></rect><rect fill="#EBEDF0" height="10" rx="2" ry="2" width="10" x="396" y="50"><title>2025-08-18</title></rect><rect fill="#EBEDF0" height="10" rx="2" ry="2" width="10" x="396" y="62"><title>2025-08-19</title></rect><rect fill="#EBEDF0" height="10" rx="2" ry="2" width="10" x="396" y="74"><title>2025-08-20</title></rect><rect fill="#EBEDF0" height="10" rx="2" ry="2" width="10" x="396" y="86"><title>2025-08-21</title></rect><rect fill="#EBEDF0" height="10" rx="2" ry="2" width="10" x="396" y="98"><title>2025-08-22</title></rect><rect fill="#EBEDF0" height="10" rx="2" ry="2" width="10" x="396" y="110"><title>2025-08-23</title></rect><rect fill="#EBEDF0" height="10" rx="2" ry="2" width="10" x="396" y="122"><title>2025-08-24</title></rect><rect fill="#EBEDF0" height="10" rx="2" ry="2" width="10" x="408" y="50"><title>2025-08-25</title></rect><rect fill="#EBEDF0" height="10" rx="2" ry="2" width="10" x="408" y="62"><title>2025-08-26</title></rect><rect fill="#EBEDF0" height="10" rx="2" ry="2" width="10" x="408" y="74"><title>2025-08-27</title></rect><rect fill="#EBEDF0" height="10" rx="2" ry="2" width="10" x="408" y="86"><title>2025-08-28</title></rect><rect fill="#EBEDF0" height="10" rx="2" ry="2" width="10" x="408" y="98"><title>2025-08-29</title></rect><rect fill="#EBEDF0" height="10" rx="2" ry="2" width="10" x="408" y="110"><title>2025-08-30</title></rect><rect fill="#EBEDF0" height="10" rx="2" ry="2" width="10" x="408" y="122"><title>2025-08-31</title></rect><text fill="#2D3436" style="font-size:10px; font-family:Arial" x="420" y="48">Sep</text><rect fill="#EBEDF0" height="10" rx="2" ry="2" width="10" x="420" y="50"><title>2025-09-01</title></rect><rect fill="#EBEDF0" height="10" rx="2" ry="2" width="10" x="420" y="62"><title>2025-09-02</title></rect><rect fill="#EBEDF0" height="10" rx="2" ry="2" width="10" x="420" y="74"><title>2025-09-03</title></rect><rect fill="#EBEDF0" height="10" rx="2" ry="2" width="10" x="420" y="86"><title>2025-09-04</title></rect><rect fill="#EBEDF0" height="10" rx="2" ry="2" width="10" x="420" y="98"><title>2025-09-05</title></rect><rect fill="#EBEDF0" height="10" rx="2" ry="2" width="10" x="420" y="110"><title>2025-09-06</title></rect><rect fill="#EBEDF0" height="10" rx="2" ry="2" width="10" x="420" y="122"><title>2025-09-07</title></rect><rect fill="#EBEDF0" height="10" rx="2" ry="2" width="10" x="432" y="50"><title>2025-09-08</title></rect><rect fill="#EBEDF0" height="10" rx="2" ry="2" width="10" x="432" y="62"><title>2025-09-09</title></rect><rect fill="#EBEDF0" height="10" rx="2" ry="2" width="10" x="432" y="74"><title>2025-09-10</title></rect><rect fill="#EBEDF0" height="10" rx="2" ry="2" width="10" x="432" y="86"><title>2025-09-11</title></rect><rect fill="#EBEDF0" height="10" rx="2" ry="2" width="10" x="432" y="98"><title>2025-09-12</title></rect><rect fill="#EBEDF0" height="10" rx="2" ry="2" width="10" x="432" y="110"><title>2025-09-13</title></rect><rect fill="#EBEDF0" height="10" rx="2" ry="2" width="10" x="432" y="122"><title>2025-09-14</title></rect><rect fill="#EBEDF0" height="10" rx="2" ry="2" width="10" x="444" y="50"><title>2025-09-15</title></rect><rect fill="#EBEDF0" height="10" rx="2" ry="2" width="10" x="444" y="62"><title>2025-09-16</title></rect><rect fill="#EBEDF0" height="10" rx="2" ry="2" width="10" x="444" y="74"><title>2025-09-17</title></rect><rect fill="#EBEDF0" height="10" rx="2" ry="2" width="10" x="444" y="86"><title>2025-09-18</title></rect><rect fill="#EBEDF0" height="10" rx="2" ry="2" width="10" x="444" y="98"><title>2025-09-19</title></rect><rect fill="#EBEDF0" height="10" rx="2" ry="2" width="10" x="444" y="110"><title>2025-09-20</title></rect><rect fill="#EBEDF0" height="10" rx="2" ry="2" width="10" x="444" y="122"><title>2025-09-21</title></rect><rect fill="#EBEDF0" height="10" rx="2" ry="2" width="10" x="456" y="50"><title>2025-09-22</title></rect><rect fill="#EBEDF0" height="10" rx="2" ry="2" width="10" x="456" y="62"><title>2025-09-23</title></rect><rect fill="#EBEDF0" height="10" rx="2" ry="2" width="10" x="456" y="74"><title>2025-09-24</title></rect><rect fill="#EBEDF0" height="10" rx="2" ry="2" width="10" x="456" y="86"><title>2025-09-25</title></rect><rect fill="#EBEDF0" height="10" rx="2" ry="2" width="10" x="456" y="98"><title>2025-09-26</title></rect><rect fill="#EBEDF0" height="10" rx="2" ry="2" width="10" x="456" y="110"><title>2025-09-27</title></rect><rect fill="#EBEDF0" height="10" rx="2" ry="2" width="10" x="456" y="122"><title>2025-09-28</title></rect><rect fill="#EBEDF0" height="10" rx="2" ry="2" width="10" x="468" y="50"><title>2025-09-29</title></rect><rect fill="#EBEDF0" height="10" rx="2" ry="2" width="10" x="468" y="62"><title>2025-09-30</title></rect><rect fill="#EBEDF0" height="10" rx="2" ry="2" width="10" x="468" y="74"><title>2025-10-01</title></rect><rect fill="#EBEDF0" height="10" rx="2" ry="2" width="10" x="468" y="86"><title>2025-10-02</title></rect><rect fill="#EBEDF0" height="10" rx="2" ry="2" width="10" x="468" y="98"><title>2025-10-03</title></rect><rect fill="#EBEDF0" height="10" rx="2" ry="2" width="10" x="468" y="110"><title>2025-10-04</title></rect><rect fill="#EBEDF0" height="10" rx="2" ry="2" width="10" x="468" y="122"><title>2025-10-05</title></rect><text fill="#2D3436" style="font-size:10px; font-family:Arial" x="480" y="48">Oct</text><rect fill="#EBEDF0" height="10" rx="2" ry="2" width="10" x="480" y="50"><title>2025-10-06</title></rect><rect fill="#EBEDF0" height="10" rx="2" ry="2" width="10" x="480" y="62"><title>2025-10-07</title></rect><rect fill="#EBEDF0" height="10" rx="2" ry="2" width="10" x="480" y="74"><title>2025-10-08</title></rect><rect fill="#EBEDF0" height="10" rx="2" ry="2" width="10" x="480" y="86"><title>2025-10-09</title></rect><rect fill="#EBEDF0" height="10" rx="2" ry="2" width="10" x="480" y="98"><title>2025-10-10</title></rect><rect fill="#EBEDF0" height="10" rx="2" ry="2" width="10" x="480" y="110"><title>2025-10-11</title></rect><rect fill="#EBEDF0" height="10" rx="2" ry="2" width="10" x="480" y="122"><title>2025-10-12</title></rect><rect fill="#EBEDF0" height="10" rx="2" ry="2" width="10" x="492" y="50"><title>2025-10-13</title></rect><rect fill="#EBEDF0" height="10" rx="2" ry="2" width="10" x="492" y="62"><title>2025-10-14</title></rect><rect fill="#EBEDF0" height="10" rx="2" ry="2" width="10" x="492" y="74"><title>2025-10-15</title></rect><rect fill="#EBEDF0" height="10" rx="2" ry="2" width="10" x="492" y="86"><title>2025-10-16</title></rect><rect fill="#EBEDF0" height="10" rx="2" ry="2" width="10" x="492" y="98"><title>2025-10-17</title></rect><rect fill="#EBEDF0" height="10" rx="2" ry="2" width="10" x="492" y="110"><title>2025-10-18</title></rect><rect fill="#EBEDF0" height="10" rx="2" ry="2" width="10" x="492" y="122"><title>2025-10-19</title></rect><rect fill="#EBEDF0" height="10" rx="2" ry="2" width="10" x="504" y="50"><title>2025-10-20</title></rect><rect fill="#EBEDF0" height="10" rx="2" ry="2" width="10" x="504" y="62"><title>2025-10-21</title></rect><rect fill="#EBEDF0" height="10" rx="2" ry="2" width="10" x="504" y="74"><title>2025-10-22</title></rect><rect fill="#EBEDF0" height="10" rx="2" ry="2" width="10" x="504" y="86"><title>2025-10-23</title></rect><rect fill="#EBEDF0" height="10" rx="2" ry="2" width="10" x="504" y="98"><title>2025-10-24</title></rect><rect fill="#EBEDF0" height="10" rx="2" ry="2" width="10" x="504" y="110"><title>2025-10-25</title></rect><rect fill="#EBEDF0" height="10" rx="2" ry="2" width="10" x="504" y="122"><title>2025-10-26</title></rect><rect fill="#EBEDF0" height="10" rx="2" ry="2" width="10" x="516" y="50"><title>2025-10-27</title></rect><rect fill="#EBEDF0" height="10" rx="2" ry="2" width="10" x="516" y="62"><title>2025-10-28</title></rect><rect fill="#EBEDF0" height="10" rx="2" ry="2" width="10" x="516" y="74"><title>2025-10-29</title></rect><rect fill="#EBEDF0" height="10" rx="2" ry="2" width="10" x="516" y="86"><title>2025-10-30</title></rect><rect fill="#EBEDF0" height="10" rx="2" ry="2" width="10" x="516" y="98"><title>2025-10-31</title></rect><rect fill="#EBEDF0" height="10" rx="2" ry="2" width="10" x="516" y="110"><title>2025-11-01</title></rect><rect fill="#EBEDF0" height="10" rx="2" ry="2" width="10" x="516" y="122"><title>2025-11-02</title></rect><text fill="#2D3436" style="font-size:10px; font-family:Arial" x="528" y="48">Nov</text><rect fill="#EBEDF0" height="10" rx="2" ry="2" width="10" x="528" y="50"><title>2025-11-03</title></rect><rect fill="#EBEDF0" height="10" rx="2" ry="2" width="10" x="528" y="62"><title>2025-11-04</title></rect><rect fill="#EBEDF0" height="10" rx="2" ry="2" width="10" x="528" y="74"><title>2025-11-05</title></rect><rect fill="#EBEDF0" height="10" rx="2" ry="2" width="10" x="528" y="86"><title>2025-11-06</title></rect><rect fill="#EBEDF0" height="10" rx="2" ry="2" width="10" x="528" y="98"><title>2025-11-07</title></rect><rect fill="#EBEDF0" height="10" rx="2" ry="2" width="10" x="528" y="110"><title>2025-11-08</title></rect><rect fill="#EBEDF0" height="10" rx="2" ry="2" width="10" x="528" y="122"><title>2025-11-09</title></rect><rect fill="#EBEDF0" height="10" rx="2" ry="2" width="10" x="540" y="50"><title>2025-11-10</title></rect><rect fill="#EBEDF0" height="10" rx="2" ry="2" width="10" x="540" y="62"><title>2025-11-11</title></rect><rect fill="#EBEDF0" height="10" rx="2" ry="2" width="10" x="540" y="74"><title>2025-11-12</title></rect><rect fill="#EBEDF0" height="10" rx="2" ry="2" width="10" x="540" y="86"><title>2025-11-13</title></rect><rect fill="#EBEDF0" height="10" rx="2" ry="2" width="10" x="540" y="98"><title>2025-11-14</title></rect><rect fill="#EBEDF0" height="10" rx="2" ry="2" width="10" x="540" y="110"><title>2025-11-15</title></rect><rect fill="#EBEDF0" height="10" rx="2" ry="2" width="10" x="540" y="122"><title>2025-11-16</title></rect><rect fill="#EBEDF0" height="10" rx="2" ry="2" width="10" x="552" y="50"><title>2025-11-17</title></rect><rect fill="#EBEDF0" height="10" rx="2" ry="2" width="10" x="552" y="62"><title>2025-11-18</title></rect><rect fill="#EBEDF0" height="10" rx="2" ry="2" width="10" x="552" y="74"><title>2025-11-19</title></rect><rect fill="#EBEDF0" height="10" rx="2" ry="2" width="10" x="552" y="86"><title>2025-11-20</title></rect><rect fill="#EBEDF0" height="10" rx="2" ry="2" width="10" x="552" y="98"><title>2025-11-21</title></rect><rect fill="#EBEDF0" height="10" rx="2" ry="2" width="10" x="552" y="110"><title>2025-11-22</title></rect><rect fill="#EBEDF0" height="10" rx="2" ry="2" width="10" x="552" y="122"><title>2025-11-23</title></rect><rect fill="#EBEDF0" height="10" rx="2" ry="2" width="10" x="564" y="50"><title>2025-11-24</title></rect><rect fill="#EBEDF0" height="10" rx="2" ry="2" width="10" x="564" y="62"><title>2025-11-25</title></rect><rect fill="#EBEDF0" height="10" rx="2" ry="2" width="10" x="564" y="74"><title>2025-11-26</title></rect><rect fill="#EBEDF0" height="10" rx="2" ry="2" width="10" x="564" y="86"><title>2025-11-27</title></rect><rect fill="#EBEDF0" height="10" rx="2" ry="2" width="10" x="564" y="98"><title>2025-11-28</title></rect><rect fill="#EBEDF0" height="10" rx="2" ry="2" width="10" x="564" y="110"><title>2025-11-29</title></rect><rect fill="#EBEDF0" height="10" rx="2" ry="2" width="10" x="564" y="122"><title>2025-11-30</title></rect><text fill="#2D3436" style="font-size:10px; font-family:Arial" x="576" y="48">Dec</text><rect fill="#EBEDF0" height="10" rx="2" ry="2" width="10" x="576" y="50"><title>2025-12-01</title></rect><rect fill="#EBEDF0" height="10" rx="2" ry="2" width="10" x="576" y="62"><title>2025-12-02</title></rect><rect fill="#EBEDF0" height="10" rx="2" ry="2" width="10" x="576" y="74"><title>2025-12-03</title></rect><rect fill="#EBEDF0" height="10" rx="2" ry="2" width="10" x="576" y="86"><title>2025-12-04</title></rect><rect fill="#EBEDF0" height="10" rx="2" ry="2" width="10" x="576" y="98"><title>2025-12-05</title></rect><rect fill="#EBEDF0" height="10" rx="2" ry="2" width="10" x="576" y="110"><title>2025-12-06</title></rect><rect fill="#EBEDF0" height="10" rx="2" ry="2" width="10" x="576" y="122"><title>2025-12-07</title></rect><rect fill="#EBEDF0" height="10" rx="2" ry="2" width="10" x="588" y="50"><title>2025-12-08</title></rect><rect fill="#EBEDF0" height="10" rx="2" ry="2" width="10" x="588" y="62"><title>2025-12-09</title></rect><rect fill="#EBEDF0" height="10" rx="2" ry="2" width="10" x="588" y="74"><title>2025-12-10</title></rect><rect fill="#EBEDF0" height="10" rx="2" ry="2" width="10" x="588" y="86"><title>2025-12-11</title></rect><rect fill="#EBEDF0" height="10" rx="2" ry="2" width="10" x="588" y="98"><title>2025-12-12</title></rect><rect fill="#EBEDF0" height="10" rx="2" ry="2" width="10" x="588" y="110"><title>2025-12-13</title></rect><rect fill="#EBEDF0" height="10" rx="2" ry="2" width="10" x="588" y="122"><title>2025-12-14</title></rect><rect fill="#EBEDF0" height="10" rx="2" ry="2" width="10" x="600" y="50"><title>2025-12-15</title></rect><rect fill="#EBEDF0" height="10" rx="2" ry="2" width="10" x="600" y="62"><title>2025-12-16</title></rect><rect fill="#EBEDF0" height="10" rx="2" ry="2" width="10" x="600" y="74"><title>2025-12-17</title></rect><rect fill="#EBEDF0" height="10" rx="2" ry="2" width="10" x="600" y="86"><title>2025-12-18</title></rect><rect fill="#EBEDF0" height="10" rx="2" ry="2" width="10" x="600" y="98"><title>2025-12-19</title></rect><rect fill="#EBEDF0" height="10" rx="2" ry="2" width="10" x="600" y="110"><title>2025-12-20</title></rect><rect fill="#EBEDF0" height="10" rx="2" ry="2" width="10" x="600" y="122"><title>2025-12-21</title></rect><rect fill="#EBEDF0" height="10" rx="2" ry="2" width="10" x="612" y="50"><title>2025-12-22</title></rect><rect fill="#EBEDF0" height="10" rx="2" ry="2" width="10" x="612" y="62"><title>2025-12-23</title></rect><rect fill="#EBEDF0" height="10" rx="2" ry="2" width="10" x="612" y="74"><title>2025-12-24</title></rect><rect fill="#EBEDF0" height="10" rx="2" ry="2" width="10" x="612" y="86"><title>2025-12-25</title></rect><rect fill="#EBEDF0" height="10" rx="2" ry="2" width="10" x="612" y="98"><title>2025-12-26</title></rect><rect fill="#EBEDF0" height="10" rx="2" ry="2" width="10" x="612" y="110"><title>2025-12-27</title></rect><rect fill="#EBEDF0" height="10" rx="2" ry="2" width="10" x="612" y="122"><title>2025-12-28</title></rect><rect fill="#EBEDF0" height="10" rx="2" ry="2" width="10" x="624" y="50"><title>2025-12-29</title></rect><rect fill="#EBEDF0" height="10" rx="2" ry="2" width="10" x="624" y="62"><title>2025-12-30</title></rect><rect fill="#EBEDF0" height="10" rx="2" ry="2" width="10" x="624" y="74"><title>2025-12-31</title></rect></svg>